<?xml version="1.0" encoding="iso-8859-1"?>
<!-- Generator: Adobe Illustrator 16.0.0, SVG Export Plug-In . SVG Version: 6.00 Build 0)  -->
<!DOCTYPE svg PUBLIC "-//W3C//DTD SVG 1.1//EN" "http://www.w3.org/Graphics/SVG/1.1/DTD/svg11.dtd">
<svg version="1.1" id="Capa_1" xmlns="http://www.w3.org/2000/svg" xmlns:xlink="http://www.w3.org/1999/xlink" x="0px" y="0px"
	 width="47.131px" height="47.131px" viewBox="0 0 47.131 47.131" style="enable-background:new 0 0 47.131 47.131;"
	 xml:space="preserve">
<g>
	<g>
		<path d="M11.138,13.897c0.279,0.146,0.62,0.086,0.847-0.131c1.424-1.362,3.916-3.389,6.86-4.23c0.487-0.139,1.01-0.08,1.451,0.171
			c0.44,0.251,0.761,0.667,0.891,1.158l1.236,4.685c0.084,0.322,0.376,0.547,0.71,0.547s0.625-0.225,0.71-0.547l1.236-4.687
			c0.13-0.491,0.451-0.908,0.893-1.158c0.439-0.251,0.963-0.313,1.451-0.174c2.938,0.84,5.426,2.855,6.852,4.217
			c0.229,0.218,0.57,0.266,0.85,0.119c0.279-0.146,0.434-0.456,0.383-0.768c-0.257-1.599-1.023-2.837-2.013-3.81
			c-1.946-1.913-4.769-2.774-6.354-3.174c-0.223-0.056-0.474-0.1-0.728-0.135c-0.375-0.052-0.7-0.286-0.869-0.625
			c-0.168-0.34-0.155-0.741,0.031-1.07l1.304-2.301c0.233-0.412,0.23-0.916-0.008-1.324C26.632,0.252,26.195,0,25.722,0
			c-0.585,0-1.125,0.32-1.404,0.834L22.323,4.49c-0.452,0.828-1.27,1.398-2.203,1.532c-0.412,0.06-0.841,0.134-1.18,0.219
			c-1.735,0.437-4.874,1.387-6.746,3.684c-0.71,0.87-1.244,1.928-1.442,3.232C10.704,13.468,10.86,13.752,11.138,13.897z"/>
		<path d="M36.451,10.73c0.306,0.669,0.542,1.368,0.662,2.111c0.161,1.002-0.334,1.992-1.231,2.465
			c-0.883,0.465-2.015,0.303-2.731-0.382c-1.151-1.1-3.486-3.061-6.175-3.829c-0.119-0.012-0.161,0.001-0.199,0.022
			c-0.062,0.035-0.105,0.092-0.124,0.161l-1.236,4.685c-0.271,1.036-1.211,1.76-2.283,1.76c-1.072,0-2.011-0.724-2.284-1.761
			l-1.235-4.683c-0.018-0.068-0.062-0.125-0.124-0.16c-0.036-0.02-0.078-0.031-0.122-0.031c-2.763,0.778-5.104,2.747-6.26,3.853
			c-0.446,0.427-1.03,0.662-1.644,0.662c-0.375,0-0.749-0.091-1.08-0.265c-0.893-0.464-1.393-1.44-1.243-2.425
			c0.075-0.495,0.207-0.968,0.365-1.432c-4.465,3.074-7.3,7.885-7.3,14.292c0,11.795,9.563,21.357,21.358,21.357
			c11.797,0,21.36-9.562,21.36-21.357C44.925,18.823,41.593,13.742,36.451,10.73z M6.816,32.254c-0.918,0-1.662-0.744-1.662-1.662
			c0-0.917,0.744-1.662,1.662-1.662c0.917,0,1.662,0.744,1.662,1.662S7.734,32.254,6.816,32.254z M9.395,19.79
			c-1.14,1.435-1.619,3.621-1.508,6.587c0.033,0.898-0.667,1.822-1.565,1.822c-0.021,0-0.042,0-0.062,0
			c-0.871,0-1.592-0.824-1.625-1.701c-0.141-3.787,0.562-6.586,2.213-8.664c0.558-0.704,1.582-0.855,2.286-0.295
			C9.836,18.097,9.954,19.087,9.395,19.79z"/>
	</g>
</g>
<g>
</g>
<g>
</g>
<g>
</g>
<g>
</g>
<g>
</g>
<g>
</g>
<g>
</g>
<g>
</g>
<g>
</g>
<g>
</g>
<g>
</g>
<g>
</g>
<g>
</g>
<g>
</g>
<g>
</g>
</svg>
