<?xml version="1.0" encoding="UTF-8" standalone="no"?> <svg xmlns="http://www.w3.org/2000/svg" viewBox="0 0 48 64"><defs><style>.cls-1{fill:#35353d;}</style></defs><title>Asset 5</title><g id="Layer_2" data-name="Layer 2"><g id="Layer_1-2" data-name="Layer 1"><path class="cls-1" d="M40,50.67V45.33a2.67,2.67,0,0,0-5.33,0v5.34H29.33a2.67,2.67,0,0,0,0,5.33h5.34v5.33a2.67,2.67,0,1,0,5.33,0V56h5.33a2.67,2.67,0,1,0,0-5.33Z"/><path class="cls-1" d="M18.67,58.67H5.33V5.33h24V16A2.68,2.68,0,0,0,32,18.67H42.67v16a2.66,2.66,0,0,0,2.66,2.66h0A2.66,2.66,0,0,0,48,34.67V16a2.59,2.59,0,0,0-.21-1,2.68,2.68,0,0,0-.57-.87L33.89.78A2.68,2.68,0,0,0,33,.21,2.59,2.59,0,0,0,32,0H2.67A2.66,2.66,0,0,0,0,2.67V61.33A2.66,2.66,0,0,0,2.67,64h16a2.66,2.66,0,0,0,2.66-2.67h0A2.66,2.66,0,0,0,18.67,58.67Zm16-49.57,4.23,4.23H34.67Z"/></g></g></svg>